<?xml version="1.0" encoding="UTF-8" standalone="no"?>
<svg width="100%" height="100%" viewBox="0 0 64 64" version="1.1" xmlns="http://www.w3.org/2000/svg" style="stroke-linejoin:round;stroke-miterlimit:2;">
    <g transform="matrix(1.153846,0,0,1.153846,-3.769231,-3.769231)">
        <path d="M31,5C45.35,5 57,16.65 57,31C57,45.35 45.35,57 31,57C16.65,57 5,45.35 5,31C5,16.65 16.65,5 31,5Z" fill="none" stroke="#8a8a8a" stroke-width="3.47"/>
        <path d="M18.867,44.867L25.8,44.867L25.8,34.467L36.2,34.467L36.2,31L39.667,31L39.667,27.533L25.8,27.533L25.8,24.067L43.133,24.067L43.133,17.133L18.867,17.133L18.867,44.867Z" fill="#8a8a8a"/>
    </g>
</svg>
